<svg width="173" height="40" viewBox="0 0 104 33" fill="none" xmlns="http://www.w3.org/2000/svg">
<g clip-path="url(#clip0_311_10864)">
<path d="M5.29905 0H0.918073C0.411035 0 0 0.411446 0 0.918991V4.64332C0 5.15087 0.411035 5.56232 0.918073 5.56232H5.29905C5.80609 5.56232 6.21713 5.15087 6.21713 4.64332V0.918991C6.21713 0.411446 5.80609 0 5.29905 0Z" fill="#DA0081" data-darkreader-inline-fill="" style="--darkreader-inline-fill: var(--darkreader-text-da0081, #ff33ac);"></path>
<path d="M31.9874 0H28.2185C27.7031 0 27.3004 0.419189 27.3004 0.918991V15.9937C27.3004 16.3 26.8978 16.4129 26.7528 16.1388L17.9908 0.403066C17.8459 0.145104 17.5882 0 17.2822 0H11.0167C10.5013 0 10.0986 0.419189 10.0986 0.918991V25.0062C10.0986 25.5222 10.5174 25.9252 11.0167 25.9252H14.7856C15.301 25.9252 15.7037 25.506 15.7037 25.0062V9.48012C15.7037 9.17379 16.1064 9.06093 16.2513 9.33502L25.2549 25.5383C25.3999 25.7962 25.6576 25.9414 25.9636 25.9414H31.9552C32.4706 25.9414 32.8733 25.5222 32.8733 25.0224V0.918991C32.8733 0.403066 32.4545 0 31.9552 0H31.9874Z" fill="#ECE7F5" data-darkreader-inline-fill="" style="--darkreader-inline-fill: var(--darkreader-text-ece7f5, #d5cae9);"></path>
<path d="M54.6497 16.5254C54.6497 9.7378 50.2365 6.36816 45.3884 6.36816C39.0908 6.36816 35.499 10.7374 35.499 16.6383C35.499 23.3453 40.0089 26.5376 45.2435 26.5376C50.4781 26.5376 53.5384 23.829 54.3598 20.3143C54.4725 19.8628 54.2148 19.4598 53.5384 19.4598H50.5748C50.2365 19.4598 49.9466 19.6371 49.8016 19.9757C49.0607 21.6041 47.8689 22.4586 45.5817 22.4586C42.9886 22.4586 41.2491 20.8302 40.9914 17.525H53.7316C54.2793 17.525 54.6497 17.122 54.6497 16.5254ZM41.2007 13.9619C41.7484 11.5274 43.1657 10.4472 45.3079 10.4472C47.2246 10.4472 48.8675 11.5597 49.0929 13.9619H41.2007Z" fill="#ECE7F5" data-darkreader-inline-fill="" style="--darkreader-inline-fill: var(--darkreader-text-ece7f5, #d5cae9);"></path>
<path d="M103.082 6.85254H99.297C98.7899 6.85254 98.3789 7.26399 98.3789 7.77153V25.0228C98.3789 25.5303 98.7899 25.9418 99.297 25.9418H103.082C103.589 25.9418 104 25.5303 104 25.0228V7.77153C104 7.26399 103.589 6.85254 103.082 6.85254Z" fill="#ECE7F5" data-darkreader-inline-fill="" style="--darkreader-inline-fill: var(--darkreader-text-ece7f5, #d5cae9);"></path>
<path d="M74.9757 6.85179H71.2068C70.6914 6.85179 70.2887 7.27098 70.2887 7.77078V8.70589C69.1612 7.38384 67.309 6.46484 64.8769 6.46484C59.4329 6.46484 56.5498 11.3984 56.5498 16.6221C56.5498 21.1848 58.9175 26.2957 64.7641 26.2957C66.858 26.2957 69.0807 25.2961 70.2887 23.8773V31.2937C70.2887 31.8097 70.7075 32.2127 71.2068 32.2127H74.9757C75.4911 32.2127 75.8938 31.7935 75.8938 31.2937V7.7869C75.8938 7.27098 75.475 6.86791 74.9757 6.86791V6.85179ZM66.3909 22.2328C63.9105 22.2328 62.171 20.4109 62.171 16.4931C62.171 12.5753 63.9105 10.5278 66.3909 10.5278C68.8713 10.5278 70.6108 12.4141 70.6108 16.4931C70.6108 20.5722 68.8713 22.2328 66.3909 22.2328Z" fill="#ECE7F5" data-darkreader-inline-fill="" style="--darkreader-inline-fill: var(--darkreader-text-ece7f5, #d5cae9);"></path>
<path d="M95.0443 6.85254H91.2754C90.76 6.85254 90.3573 7.27173 90.3573 7.77153V17.5257C90.3573 20.6697 88.956 21.5887 87.1682 21.5887C85.3804 21.5887 83.9791 20.6697 83.9791 17.5257V7.77153C83.9791 7.25561 83.5603 6.85254 83.061 6.85254H79.2921C78.7767 6.85254 78.374 7.27173 78.374 7.77153V17.9288C78.374 23.9748 81.7081 26.4093 87.1843 26.4093C92.6605 26.4093 95.9946 23.9587 95.9946 17.9288V7.77153C95.9946 7.25561 95.5758 6.85254 95.0765 6.85254H95.0443Z" fill="#ECE7F5" data-darkreader-inline-fill="" style="--darkreader-inline-fill: var(--darkreader-text-ece7f5, #d5cae9);"></path>
</g>
<defs>
<clipPath id="clip0_311_10864">
<rect width="104" height="32.2453" fill="white" data-darkreader-inline-fill="" style="--darkreader-inline-fill: var(--darkreader-text-ffffff, #e8e6e3);"></rect>
</clipPath>
</defs>
</svg>